<svg width="171" height="60" viewBox="0 0 171 60" fill="none" xmlns="http://www.w3.org/2000/svg">
<path d="M10 0.5H55.629V59.5H10C4.7533 59.5 0.5 55.2467 0.5 50V10C0.5 4.7533 4.7533 0.5 10 0.5Z" fill="url(#paint0_linear)" stroke="url(#paint1_linear)"/>
<path d="M56.879 0.75H160.323C165.431 0.75 169.573 4.89137 169.573 10V50C169.573 55.1086 165.431 59.25 160.323 59.25H56.879V0.75Z" fill="white" stroke="url(#paint2_linear)" stroke-width="1.5"/>
<path d="M90.5187 13.1919V19.3545H88.7845L88.5523 18.2397C88.2736 18.5493 87.871 18.8487 87.3445 19.1377C86.8284 19.4164 86.209 19.5558 85.4865 19.5558C84.2684 19.5558 83.3858 19.1222 82.8387 18.2551C82.2916 17.3881 82.0181 15.9687 82.0181 13.9971C82.0181 12.6035 82.1677 11.5042 82.4671 10.699C82.7768 9.89386 83.2774 9.32095 83.969 8.98031C84.671 8.62934 85.6052 8.45386 86.7716 8.45386C87.4632 8.45386 88.0723 8.48483 88.5987 8.54676C89.1252 8.6087 89.6413 8.70676 90.1471 8.84095L89.9613 10.5597C89.4142 10.539 88.8929 10.5235 88.3974 10.5132C87.9019 10.4926 87.3755 10.4822 86.8181 10.4822C86.2297 10.4822 85.7652 10.5751 85.4245 10.761C85.0942 10.9364 84.8568 11.2822 84.7123 11.7984C84.5781 12.3042 84.511 13.0526 84.511 14.0435C84.511 14.9313 84.5626 15.6281 84.6658 16.1339C84.7794 16.6397 84.9703 17.001 85.2387 17.2177C85.5071 17.4242 85.8736 17.5274 86.3381 17.5274C86.7303 17.5274 87.0813 17.4758 87.391 17.3726C87.7006 17.2693 87.9845 17.1506 88.2426 17.0164V13.1919H90.5187Z" fill="url(#paint3_linear)"/>
<path d="M101.442 8.67063V18.5029C101.442 19.0706 101.158 19.3545 100.59 19.3545H99.2894C99.0313 19.3545 98.8352 19.2977 98.701 19.1842C98.5771 19.0603 98.4532 18.8797 98.3294 18.6422L95.3719 13.0216C95.2481 12.7945 95.1242 12.5364 95.0003 12.2474C94.8868 11.9584 94.7887 11.6797 94.7061 11.4113H94.5358C94.6081 11.9893 94.6442 12.5468 94.6442 13.0835V19.3545H92.4145V9.52224C92.4145 8.9545 92.6984 8.67063 93.2661 8.67063H94.5513C94.799 8.67063 94.9848 8.73257 95.1087 8.85644C95.2429 8.96999 95.3719 9.14031 95.4958 9.36741L98.3603 14.8177C98.4842 15.0551 98.6132 15.3235 98.7474 15.6229C98.8816 15.9119 99.0106 16.2061 99.1345 16.5055H99.3203C99.2894 16.2061 99.2636 15.9119 99.2429 15.6229C99.2326 15.3235 99.2274 15.0242 99.2274 14.7248V8.67063H101.442Z" fill="url(#paint4_linear)"/>
<path d="M112.105 8.67063V15.0964C112.105 16.1803 111.966 17.0526 111.687 17.7132C111.419 18.3635 110.98 18.8332 110.371 19.1222C109.762 19.4113 108.947 19.5558 107.925 19.5558C106.841 19.5558 105.974 19.4113 105.323 19.1222C104.673 18.8332 104.203 18.3635 103.914 17.7132C103.636 17.0526 103.496 16.1803 103.496 15.0964V8.67063H105.85V15.0964C105.85 15.7674 105.907 16.2939 106.02 16.6758C106.144 17.0474 106.345 17.3106 106.624 17.4655C106.913 17.6203 107.305 17.6977 107.801 17.6977C108.286 17.6977 108.668 17.6203 108.947 17.4655C109.236 17.3106 109.442 17.0474 109.566 16.6758C109.69 16.2939 109.752 15.7674 109.752 15.0964V8.67063H112.105Z" fill="url(#paint5_linear)"/>
<path d="M119.806 8.62418C120.622 8.62418 121.463 8.6345 122.33 8.65515C123.208 8.66547 124.002 8.71192 124.715 8.7945L124.591 10.4977H120.72C120.152 10.4977 119.868 10.761 119.868 11.2874V13.1455H124.018V14.8177H119.868V19.3545H117.515V10.8074C117.515 10.1364 117.726 9.60483 118.149 9.21257C118.573 8.82031 119.125 8.62418 119.806 8.62418Z" fill="url(#paint6_linear)"/>
<path d="M130.33 8.51579C131.455 8.51579 132.348 8.68095 133.009 9.01128C133.68 9.3416 134.165 9.90418 134.464 10.699C134.764 11.4939 134.913 12.5984 134.913 14.0126C134.913 15.4268 134.764 16.5313 134.464 17.3261C134.165 18.121 133.68 18.6835 133.009 19.0139C132.348 19.3339 131.455 19.4939 130.33 19.4939C129.515 19.4939 128.766 19.4784 128.085 19.4474C127.404 19.4268 126.758 19.3958 126.149 19.3545V8.67063C126.769 8.62934 127.414 8.59321 128.085 8.56224C128.756 8.53128 129.504 8.51579 130.33 8.51579ZM130.33 10.3274C129.989 10.3274 129.664 10.3274 129.355 10.3274C129.055 10.3274 128.771 10.3326 128.503 10.3429V17.6668C129.06 17.6771 129.669 17.6822 130.33 17.6822C130.867 17.6822 131.285 17.579 131.584 17.3726C131.884 17.1558 132.095 16.779 132.219 16.2422C132.353 15.7055 132.42 14.9622 132.42 14.0126C132.42 13.0629 132.353 12.3197 132.219 11.7829C132.095 11.2461 131.884 10.8693 131.584 10.6526C131.285 10.4358 130.867 10.3274 130.33 10.3274Z" fill="url(#paint7_linear)"/>
<path d="M139.042 8.67063V16.6603C139.042 17.1868 139.32 17.45 139.878 17.45H143.609L143.718 19.2306C142.974 19.3132 142.2 19.3597 141.395 19.37C140.6 19.3803 139.816 19.3855 139.042 19.3855C138.257 19.3855 137.669 19.179 137.276 18.7661C136.884 18.3532 136.688 17.8216 136.688 17.1713V8.67063H139.042Z" fill="url(#paint8_linear)"/>
<path d="M84.6658 24.139C85.409 24.139 86.1574 24.1442 86.911 24.1545C87.6748 24.1648 88.4026 24.1958 89.0942 24.2474L89.0168 25.3003H85.0065C84.6452 25.3003 84.3819 25.3829 84.2168 25.5481C84.0516 25.7029 83.969 25.961 83.969 26.3222V28.7997H88.4284V29.899H83.969V34.8384H82.6065V26.059C82.6065 25.45 82.7923 24.9803 83.1639 24.65C83.5355 24.3093 84.0361 24.139 84.6658 24.139Z" fill="url(#paint9_linear)"/>
<path d="M91.6097 27.2977L91.7491 28.49C92.2962 28.0564 92.8381 27.721 93.3749 27.4835C93.922 27.2358 94.4536 27.1119 94.9697 27.1119H95.3104L95.1555 28.3506H94.722C94.2988 28.3506 93.8704 28.4384 93.4368 28.6139C93.0136 28.779 92.5026 29.0113 91.9039 29.3106V34.8384H90.5878V27.2977H91.6097Z" fill="url(#paint10_linear)"/>
<path d="M99.7027 27.1119C100.838 27.1119 101.659 27.3184 102.165 27.7313C102.681 28.1442 102.939 28.7584 102.939 29.5739C102.949 30.2448 102.81 30.7713 102.521 31.1532C102.232 31.5248 101.772 31.7106 101.143 31.7106H97.6433C97.6846 32.3093 97.793 32.7687 97.9685 33.0887C98.1543 33.3984 98.4124 33.6151 98.7427 33.739C99.073 33.8526 99.4963 33.9093 100.012 33.9093C100.415 33.9093 100.854 33.8939 101.329 33.8629C101.814 33.8216 102.247 33.7751 102.629 33.7235L102.769 34.6061C102.531 34.699 102.237 34.7764 101.886 34.8384C101.545 34.9003 101.189 34.9468 100.818 34.9777C100.456 35.0087 100.131 35.0242 99.8421 35.0242C98.975 35.0242 98.2782 34.8951 97.7517 34.6371C97.2253 34.3687 96.8382 33.9455 96.5904 33.3674C96.353 32.779 96.2343 32.0048 96.2343 31.0448C96.2343 30.0539 96.353 29.2745 96.5904 28.7068C96.8382 28.1287 97.215 27.721 97.7208 27.4835C98.2369 27.2358 98.8975 27.1119 99.7027 27.1119ZM99.7646 28.2268C99.2382 28.2268 98.8201 28.299 98.5104 28.4435C98.2111 28.588 97.9892 28.841 97.8446 29.2022C97.7104 29.5532 97.633 30.0487 97.6124 30.6887H100.802C101.143 30.6887 101.365 30.5751 101.468 30.348C101.571 30.1106 101.623 29.8526 101.623 29.5739C101.612 29.0887 101.468 28.7429 101.189 28.5364C100.91 28.33 100.436 28.2268 99.7646 28.2268Z" fill="url(#paint11_linear)"/>
<path d="M108.019 27.1119C109.155 27.1119 109.975 27.3184 110.481 27.7313C110.997 28.1442 111.255 28.7584 111.255 29.5739C111.266 30.2448 111.126 30.7713 110.837 31.1532C110.548 31.5248 110.089 31.7106 109.459 31.7106H105.96C106.001 32.3093 106.11 32.7687 106.285 33.0887C106.471 33.3984 106.729 33.6151 107.059 33.739C107.39 33.8526 107.813 33.9093 108.329 33.9093C108.731 33.9093 109.17 33.8939 109.645 33.8629C110.13 33.8216 110.564 33.7751 110.946 33.7235L111.085 34.6061C110.848 34.699 110.553 34.7764 110.202 34.8384C109.862 34.9003 109.506 34.9468 109.134 34.9777C108.773 35.0087 108.448 35.0242 108.159 35.0242C107.291 35.0242 106.595 34.8951 106.068 34.6371C105.542 34.3687 105.155 33.9455 104.907 33.3674C104.67 32.779 104.551 32.0048 104.551 31.0448C104.551 30.0539 104.67 29.2745 104.907 28.7068C105.155 28.1287 105.531 27.721 106.037 27.4835C106.553 27.2358 107.214 27.1119 108.019 27.1119ZM108.081 28.2268C107.555 28.2268 107.137 28.299 106.827 28.4435C106.528 28.588 106.306 28.841 106.161 29.2022C106.027 29.5532 105.95 30.0487 105.929 30.6887H109.119C109.459 30.6887 109.681 30.5751 109.784 30.348C109.888 30.1106 109.939 29.8526 109.939 29.5739C109.929 29.0887 109.784 28.7429 109.506 28.5364C109.227 28.33 108.752 28.2268 108.081 28.2268Z" fill="url(#paint12_linear)"/>
<path d="M120.635 24.0151C121.657 24.0151 122.472 24.1855 123.081 24.5261C123.69 24.8668 124.129 25.4345 124.398 26.2293C124.666 27.0242 124.8 28.1132 124.8 29.4964C124.8 30.8693 124.666 31.9584 124.398 32.7635C124.129 33.5584 123.69 34.1261 123.081 34.4668C122.472 34.8074 121.657 34.9777 120.635 34.9777C119.902 34.9777 119.221 34.9622 118.591 34.9313C117.972 34.9106 117.383 34.8797 116.826 34.8384V24.1545C117.383 24.1132 117.972 24.0822 118.591 24.0616C119.221 24.0306 119.902 24.0151 120.635 24.0151ZM120.635 25.1919C120.16 25.1919 119.721 25.1971 119.319 25.2074C118.927 25.2074 118.55 25.2126 118.189 25.2229V33.7545C118.539 33.7648 118.916 33.7751 119.319 33.7855C119.732 33.7855 120.17 33.7855 120.635 33.7855C121.316 33.7855 121.858 33.6564 122.261 33.3984C122.663 33.13 122.947 32.6861 123.112 32.0668C123.288 31.4371 123.376 30.5803 123.376 29.4964C123.376 28.4126 123.288 27.561 123.112 26.9416C122.947 26.3119 122.663 25.8629 122.261 25.5945C121.858 25.3261 121.316 25.1919 120.635 25.1919Z" fill="url(#paint13_linear)"/>
<path d="M130.159 27.1119C131.026 27.1119 131.717 27.241 132.233 27.499C132.76 27.7571 133.137 28.1803 133.364 28.7687C133.591 29.3468 133.704 30.1158 133.704 31.0758C133.704 32.0358 133.591 32.81 133.364 33.3984C133.137 33.9764 132.76 34.3945 132.233 34.6526C131.717 34.9106 131.026 35.0397 130.159 35.0397C129.302 35.0397 128.61 34.9106 128.084 34.6526C127.568 34.3945 127.191 33.9764 126.953 33.3984C126.726 32.81 126.613 32.0358 126.613 31.0758C126.613 30.1158 126.726 29.3468 126.953 28.7687C127.191 28.1803 127.568 27.7571 128.084 27.499C128.61 27.241 129.302 27.1119 130.159 27.1119ZM130.159 28.2268C129.611 28.2268 129.178 28.3145 128.858 28.49C128.548 28.6551 128.326 28.9442 128.192 29.3571C128.058 29.77 127.991 30.3429 127.991 31.0758C127.991 31.8087 128.058 32.3816 128.192 32.7945C128.326 33.2074 128.548 33.5016 128.858 33.6771C129.178 33.8422 129.611 33.9248 130.159 33.9248C130.706 33.9248 131.139 33.8422 131.459 33.6771C131.779 33.5016 132.006 33.2074 132.14 32.7945C132.275 32.3816 132.342 31.8087 132.342 31.0758C132.342 30.3429 132.275 29.77 132.14 29.3571C132.006 28.9442 131.779 28.6551 131.459 28.49C131.139 28.3145 130.706 28.2268 130.159 28.2268Z" fill="url(#paint14_linear)"/>
<path d="M138.99 27.1119C139.32 27.1119 139.712 27.1377 140.167 27.1893C140.631 27.2306 141.049 27.3235 141.421 27.468L141.251 28.3197C140.91 28.2887 140.549 28.268 140.167 28.2577C139.795 28.2371 139.475 28.2268 139.207 28.2268C138.608 28.2268 138.133 28.3093 137.782 28.4745C137.431 28.6397 137.178 28.9287 137.023 29.3416C136.869 29.7545 136.791 30.3274 136.791 31.0603C136.791 31.7932 136.869 32.3713 137.023 32.7945C137.178 33.2074 137.431 33.4964 137.782 33.6616C138.133 33.8268 138.608 33.9093 139.207 33.9093C139.434 33.9093 139.764 33.899 140.198 33.8784C140.631 33.8577 141.039 33.8164 141.421 33.7545L141.56 34.6371C141.178 34.7713 140.76 34.8693 140.306 34.9313C139.862 34.9932 139.418 35.0242 138.974 35.0242C138.107 35.0242 137.411 34.8951 136.884 34.6371C136.358 34.379 135.976 33.961 135.738 33.3829C135.511 32.8048 135.398 32.0306 135.398 31.0603C135.398 30.09 135.516 29.3158 135.754 28.7377C135.991 28.1597 136.373 27.7468 136.9 27.499C137.426 27.241 138.123 27.1119 138.99 27.1119Z" fill="url(#paint15_linear)"/>
<path d="M83.9536 39.6384V48.1545C83.9536 48.8358 84.2994 49.1764 84.991 49.1764H88.8465L88.9084 50.2293C88.2374 50.2809 87.551 50.3119 86.849 50.3222C86.1574 50.3326 85.4658 50.3377 84.7742 50.3377C83.9897 50.3377 83.4323 50.1468 83.1019 49.7648C82.7716 49.3829 82.6065 48.9029 82.6065 48.3248V39.6384H83.9536Z" fill="url(#paint16_linear)"/>
<path d="M91.4736 39.5764C91.742 39.5764 91.8762 39.7106 91.8762 39.979V40.8616C91.8762 41.13 91.742 41.2642 91.4736 41.2642H90.8543C90.5859 41.2642 90.4517 41.13 90.4517 40.8616V39.979C90.4517 39.7106 90.5859 39.5764 90.8543 39.5764H91.4736ZM91.8143 42.7816V50.3222H90.5136V42.7816H91.8143Z" fill="url(#paint17_linear)"/>
<path d="M97.5131 42.5958C97.8434 42.5958 98.2356 42.6216 98.6898 42.6732C99.1544 42.7145 99.5724 42.8074 99.944 42.9519L99.7737 43.8035C99.4331 43.7726 99.0718 43.7519 98.6898 43.7416C98.3182 43.721 97.9982 43.7106 97.7298 43.7106C97.1311 43.7106 96.6563 43.7932 96.3053 43.9584C95.9544 44.1235 95.7015 44.4126 95.5466 44.8255C95.3918 45.2384 95.3144 45.8113 95.3144 46.5442C95.3144 47.2771 95.3918 47.8551 95.5466 48.2784C95.7015 48.6913 95.9544 48.9803 96.3053 49.1455C96.6563 49.3106 97.1311 49.3932 97.7298 49.3932C97.9569 49.3932 98.2873 49.3829 98.7208 49.3622C99.1544 49.3416 99.5621 49.3003 99.944 49.2384L100.083 50.121C99.7015 50.2551 99.2834 50.3532 98.8292 50.4151C98.3853 50.4771 97.9415 50.508 97.4976 50.508C96.6305 50.508 95.9337 50.379 95.4073 50.121C94.8808 49.8629 94.4989 49.4448 94.2615 48.8668C94.0344 48.2887 93.9208 47.5145 93.9208 46.5442C93.9208 45.5739 94.0395 44.7997 94.2769 44.2216C94.5144 43.6435 94.8963 43.2306 95.4227 42.9829C95.9492 42.7248 96.646 42.5958 97.5131 42.5958Z" fill="url(#paint18_linear)"/>
<path d="M104.844 42.5958C105.979 42.5958 106.8 42.8022 107.306 43.2151C107.822 43.628 108.08 44.2422 108.08 45.0577C108.09 45.7287 107.951 46.2551 107.662 46.6371C107.373 47.0087 106.914 47.1945 106.284 47.1945H102.784C102.826 47.7932 102.934 48.2526 103.11 48.5726C103.295 48.8822 103.554 49.099 103.884 49.2229C104.214 49.3364 104.637 49.3932 105.154 49.3932C105.556 49.3932 105.995 49.3777 106.47 49.3468C106.955 49.3055 107.388 49.259 107.77 49.2074L107.91 50.09C107.672 50.1829 107.378 50.2603 107.027 50.3222C106.686 50.3842 106.33 50.4306 105.959 50.4616C105.597 50.4926 105.272 50.508 104.983 50.508C104.116 50.508 103.419 50.379 102.893 50.121C102.366 49.8526 101.979 49.4293 101.732 48.8513C101.494 48.2629 101.375 47.4887 101.375 46.5287C101.375 45.5377 101.494 44.7584 101.732 44.1906C101.979 43.6126 102.356 43.2048 102.862 42.9674C103.378 42.7197 104.039 42.5958 104.844 42.5958ZM104.906 43.7106C104.379 43.7106 103.961 43.7829 103.652 43.9274C103.352 44.0719 103.13 44.3248 102.986 44.6861C102.852 45.0371 102.774 45.5326 102.754 46.1726H105.943C106.284 46.1726 106.506 46.059 106.609 45.8319C106.712 45.5945 106.764 45.3364 106.764 45.0577C106.754 44.5726 106.609 44.2268 106.33 44.0203C106.052 43.8139 105.577 43.7106 104.906 43.7106Z" fill="url(#paint19_linear)"/>
<path d="M111.178 42.7816L111.271 43.9739C111.839 43.53 112.402 43.1893 112.959 42.9519C113.527 42.7145 114.089 42.5958 114.647 42.5958C116.009 42.5958 116.691 43.2874 116.691 44.6706V50.3222H115.375V45.0422C115.375 44.5364 115.292 44.1906 115.127 44.0048C114.962 43.8087 114.683 43.7106 114.291 43.7106C113.847 43.7106 113.398 43.819 112.944 44.0358C112.5 44.2422 111.978 44.5261 111.38 44.8874V50.3222H110.064V42.7816H111.178Z" fill="url(#paint20_linear)"/>
<path d="M121.569 42.5958C122.064 42.6061 122.601 42.6319 123.179 42.6732C123.757 42.7042 124.279 42.7558 124.743 42.828L124.635 43.788C124.16 43.7674 123.68 43.7519 123.195 43.7416C122.72 43.721 122.245 43.7106 121.77 43.7106C121.306 43.7003 120.939 43.7106 120.671 43.7416C120.403 43.7726 120.206 43.8551 120.083 43.9893C119.969 44.1235 119.912 44.3506 119.912 44.6706C119.912 45.0629 120.005 45.3209 120.191 45.4448C120.377 45.5687 120.65 45.6719 121.012 45.7545L123.21 46.25C123.809 46.3945 124.248 46.6164 124.526 46.9158C124.815 47.2151 124.96 47.6848 124.96 48.3248C124.96 48.9442 124.841 49.4087 124.604 49.7184C124.377 50.028 124.026 50.2345 123.551 50.3377C123.076 50.441 122.472 50.4926 121.739 50.4926C121.471 50.4926 121.068 50.4822 120.532 50.4616C120.005 50.441 119.422 50.379 118.782 50.2758L118.875 49.3158C119.246 49.3364 119.649 49.3571 120.083 49.3777C120.526 49.388 120.991 49.388 121.476 49.3777C122.044 49.3777 122.488 49.3519 122.808 49.3003C123.128 49.2487 123.355 49.1506 123.489 49.0061C123.623 48.8513 123.69 48.6242 123.69 48.3248C123.69 47.9532 123.582 47.7055 123.365 47.5816C123.148 47.4577 122.859 47.3545 122.498 47.2719L120.33 46.7764C119.721 46.6319 119.283 46.3997 119.014 46.0797C118.756 45.7597 118.627 45.29 118.627 44.6706C118.627 44.0822 118.73 43.6384 118.937 43.339C119.143 43.0397 119.463 42.8384 119.897 42.7351C120.33 42.6319 120.888 42.5855 121.569 42.5958Z" fill="url(#paint21_linear)"/>
<path d="M130.02 42.5958C131.156 42.5958 131.976 42.8022 132.482 43.2151C132.998 43.628 133.256 44.2422 133.256 45.0577C133.267 45.7287 133.127 46.2551 132.838 46.6371C132.549 47.0087 132.09 47.1945 131.46 47.1945H127.961C128.002 47.7932 128.111 48.2526 128.286 48.5726C128.472 48.8822 128.73 49.099 129.06 49.2229C129.391 49.3364 129.814 49.3932 130.33 49.3932C130.733 49.3932 131.171 49.3777 131.646 49.3468C132.131 49.3055 132.565 49.259 132.947 49.2074L133.086 50.09C132.849 50.1829 132.554 50.2603 132.203 50.3222C131.863 50.3842 131.507 50.4306 131.135 50.4616C130.774 50.4926 130.449 50.508 130.16 50.508C129.293 50.508 128.596 50.379 128.069 50.121C127.543 49.8526 127.156 49.4293 126.908 48.8513C126.671 48.2629 126.552 47.4887 126.552 46.5287C126.552 45.5377 126.671 44.7584 126.908 44.1906C127.156 43.6126 127.533 43.2048 128.038 42.9674C128.554 42.7197 129.215 42.5958 130.02 42.5958ZM130.082 43.7106C129.556 43.7106 129.138 43.7829 128.828 43.9274C128.529 44.0719 128.307 44.3248 128.162 44.6861C128.028 45.0371 127.951 45.5326 127.93 46.1726H131.12C131.46 46.1726 131.682 46.059 131.785 45.8319C131.889 45.5945 131.94 45.3364 131.94 45.0577C131.93 44.5726 131.785 44.2268 131.507 44.0203C131.228 43.8139 130.753 43.7106 130.082 43.7106Z" fill="url(#paint22_linear)"/>
<path fill-rule="evenodd" clip-rule="evenodd" d="M47.3226 30.9678C47.3226 41.0693 39.1337 49.2581 29.0323 49.2581C18.9308 49.2581 10.7419 41.0693 10.7419 30.9678C10.7419 20.8663 18.9308 12.6775 29.0323 12.6775C39.1337 12.6775 47.3226 20.8663 47.3226 30.9678ZM50.3226 30.9678C50.3226 42.7261 40.7906 52.2581 29.0323 52.2581C17.2739 52.2581 7.74194 42.7261 7.74194 30.9678C7.74194 19.2095 17.2739 9.67749 29.0323 9.67749C40.7906 9.67749 50.3226 19.2095 50.3226 30.9678ZM26.3439 17.5851C27.0982 17.5364 28.0106 17.5121 29.0812 17.5121C31.4901 17.5121 33.4244 17.9379 34.8844 18.7895C36.3199 19.6168 37.3662 20.9793 38.0232 22.8772C38.6558 24.7751 38.9721 27.3299 38.9721 30.5417C38.9721 33.7535 38.6558 36.3084 38.0232 38.2063C37.3662 40.1041 36.3199 41.4789 34.8844 42.3305C33.4244 43.1578 31.4901 43.5714 29.0812 43.5714C27.4267 43.5714 26.0519 43.4984 24.957 43.3524C23.8377 43.2308 22.755 43.0239 21.7087 42.732L22.0372 40.3231C23.0591 40.4691 24.1054 40.5786 25.176 40.6516C26.2222 40.7003 27.524 40.7246 29.0812 40.7246C30.7115 40.7246 32.001 40.4083 32.95 39.7757C33.8989 39.143 34.5802 38.0846 34.9938 36.6004C35.3832 35.1161 35.5778 33.0966 35.5778 30.5417C35.5778 27.9869 35.3832 25.9674 34.9938 24.4831C34.5802 22.9989 33.8989 21.9404 32.95 21.3078C32.001 20.6752 30.7115 20.3589 29.0812 20.3589C28.1079 20.3589 27.2685 20.371 26.5629 20.3954C25.8573 20.4197 25.2003 20.4562 24.592 20.5049C23.9594 20.5535 23.2781 20.6144 22.5481 20.6874L22.2197 18.242C22.9009 18.0717 23.5701 17.9379 24.227 17.8405C24.8597 17.7189 25.5653 17.6337 26.3439 17.5851Z" fill="white"/>
<defs>
<linearGradient id="paint0_linear" x1="28.0645" y1="0" x2="28.0645" y2="60" gradientUnits="userSpaceOnUse">
<stop stop-color="#616892"/>
<stop offset="1" stop-color="#707FA6"/>
</linearGradient>
<linearGradient id="paint1_linear" x1="28.0645" y1="0" x2="28.0645" y2="60" gradientUnits="userSpaceOnUse">
<stop stop-color="#616892"/>
<stop offset="1" stop-color="#707FA6"/>
</linearGradient>
<linearGradient id="paint2_linear" x1="113.226" y1="0" x2="113.226" y2="60" gradientUnits="userSpaceOnUse">
<stop stop-color="#616892"/>
<stop offset="1" stop-color="#707FA6"/>
</linearGradient>
<linearGradient id="paint3_linear" x1="112.868" y1="8.45386" x2="112.868" y2="50.508" gradientUnits="userSpaceOnUse">
<stop stop-color="#616892"/>
<stop offset="1" stop-color="#707FA6"/>
</linearGradient>
<linearGradient id="paint4_linear" x1="112.868" y1="8.45386" x2="112.868" y2="50.508" gradientUnits="userSpaceOnUse">
<stop stop-color="#616892"/>
<stop offset="1" stop-color="#707FA6"/>
</linearGradient>
<linearGradient id="paint5_linear" x1="112.868" y1="8.45386" x2="112.868" y2="50.508" gradientUnits="userSpaceOnUse">
<stop stop-color="#616892"/>
<stop offset="1" stop-color="#707FA6"/>
</linearGradient>
<linearGradient id="paint6_linear" x1="112.868" y1="8.45386" x2="112.868" y2="50.508" gradientUnits="userSpaceOnUse">
<stop stop-color="#616892"/>
<stop offset="1" stop-color="#707FA6"/>
</linearGradient>
<linearGradient id="paint7_linear" x1="112.868" y1="8.45386" x2="112.868" y2="50.508" gradientUnits="userSpaceOnUse">
<stop stop-color="#616892"/>
<stop offset="1" stop-color="#707FA6"/>
</linearGradient>
<linearGradient id="paint8_linear" x1="112.868" y1="8.45386" x2="112.868" y2="50.508" gradientUnits="userSpaceOnUse">
<stop stop-color="#616892"/>
<stop offset="1" stop-color="#707FA6"/>
</linearGradient>
<linearGradient id="paint9_linear" x1="112.868" y1="8.45386" x2="112.868" y2="50.508" gradientUnits="userSpaceOnUse">
<stop stop-color="#616892"/>
<stop offset="1" stop-color="#707FA6"/>
</linearGradient>
<linearGradient id="paint10_linear" x1="112.868" y1="8.45386" x2="112.868" y2="50.508" gradientUnits="userSpaceOnUse">
<stop stop-color="#616892"/>
<stop offset="1" stop-color="#707FA6"/>
</linearGradient>
<linearGradient id="paint11_linear" x1="112.868" y1="8.45386" x2="112.868" y2="50.508" gradientUnits="userSpaceOnUse">
<stop stop-color="#616892"/>
<stop offset="1" stop-color="#707FA6"/>
</linearGradient>
<linearGradient id="paint12_linear" x1="112.868" y1="8.45386" x2="112.868" y2="50.508" gradientUnits="userSpaceOnUse">
<stop stop-color="#616892"/>
<stop offset="1" stop-color="#707FA6"/>
</linearGradient>
<linearGradient id="paint13_linear" x1="112.868" y1="8.45386" x2="112.868" y2="50.508" gradientUnits="userSpaceOnUse">
<stop stop-color="#616892"/>
<stop offset="1" stop-color="#707FA6"/>
</linearGradient>
<linearGradient id="paint14_linear" x1="112.868" y1="8.45386" x2="112.868" y2="50.508" gradientUnits="userSpaceOnUse">
<stop stop-color="#616892"/>
<stop offset="1" stop-color="#707FA6"/>
</linearGradient>
<linearGradient id="paint15_linear" x1="112.868" y1="8.45386" x2="112.868" y2="50.508" gradientUnits="userSpaceOnUse">
<stop stop-color="#616892"/>
<stop offset="1" stop-color="#707FA6"/>
</linearGradient>
<linearGradient id="paint16_linear" x1="112.868" y1="8.45386" x2="112.868" y2="50.508" gradientUnits="userSpaceOnUse">
<stop stop-color="#616892"/>
<stop offset="1" stop-color="#707FA6"/>
</linearGradient>
<linearGradient id="paint17_linear" x1="112.868" y1="8.45386" x2="112.868" y2="50.508" gradientUnits="userSpaceOnUse">
<stop stop-color="#616892"/>
<stop offset="1" stop-color="#707FA6"/>
</linearGradient>
<linearGradient id="paint18_linear" x1="112.868" y1="8.45386" x2="112.868" y2="50.508" gradientUnits="userSpaceOnUse">
<stop stop-color="#616892"/>
<stop offset="1" stop-color="#707FA6"/>
</linearGradient>
<linearGradient id="paint19_linear" x1="112.868" y1="8.45386" x2="112.868" y2="50.508" gradientUnits="userSpaceOnUse">
<stop stop-color="#616892"/>
<stop offset="1" stop-color="#707FA6"/>
</linearGradient>
<linearGradient id="paint20_linear" x1="112.868" y1="8.45386" x2="112.868" y2="50.508" gradientUnits="userSpaceOnUse">
<stop stop-color="#616892"/>
<stop offset="1" stop-color="#707FA6"/>
</linearGradient>
<linearGradient id="paint21_linear" x1="112.868" y1="8.45386" x2="112.868" y2="50.508" gradientUnits="userSpaceOnUse">
<stop stop-color="#616892"/>
<stop offset="1" stop-color="#707FA6"/>
</linearGradient>
<linearGradient id="paint22_linear" x1="112.868" y1="8.45386" x2="112.868" y2="50.508" gradientUnits="userSpaceOnUse">
<stop stop-color="#616892"/>
<stop offset="1" stop-color="#707FA6"/>
</linearGradient>
</defs>
</svg>
